<svg width="64" height="64" viewBox="0 0 64 64" fill="none" xmlns="http://www.w3.org/2000/svg">
  <defs>
    <radialGradient id="glow1" cx="50%" cy="40%" r="60%">
      <stop offset="0%" stop-color="#ffffff" stop-opacity="1"/>
      <stop offset="45%" stop-color="#e8b45a" stop-opacity="0.7"/>
      <stop offset="100%" stop-color="#d4963a" stop-opacity="0"/>
    </radialGradient>
    <linearGradient id="beamAmberR" x1="32" y1="20" x2="64" y2="20" gradientUnits="userSpaceOnUse">
      <stop offset="0%" stop-color="#e8b45a" stop-opacity="0.95"/>
      <stop offset="100%" stop-color="#d4963a" stop-opacity="0"/>
    </linearGradient>
    <linearGradient id="beamTealLU" x1="32" y1="18" x2="2" y2="5" gradientUnits="userSpaceOnUse">
      <stop offset="0%" stop-color="#1da89a" stop-opacity="0.95"/>
      <stop offset="100%" stop-color="#1da89a" stop-opacity="0"/>
    </linearGradient>
    <linearGradient id="beamTealLD" x1="32" y1="22" x2="1" y2="40" gradientUnits="userSpaceOnUse">
      <stop offset="0%" stop-color="#1da89a" stop-opacity="0.95"/>
      <stop offset="100%" stop-color="#1da89a" stop-opacity="0"/>
    </linearGradient>
    <linearGradient id="towerGrad1" x1="0" y1="0" x2="0" y2="1">
      <stop offset="0%" stop-color="#5c7f9a"/>
      <stop offset="100%" stop-color="#2e4d66"/>
    </linearGradient>
    <linearGradient id="baseGrad1" x1="0" y1="0" x2="0" y2="1">
      <stop offset="0%" stop-color="#3e5e78"/>
      <stop offset="100%" stop-color="#243d52"/>
    </linearGradient>
  </defs>

  <polygon points="32,19 64,4 64,9 32,20" fill="url(#beamAmberR)" opacity="0.9"/>
  <polygon points="32,20 64,16 64,22 32,21" fill="url(#beamAmberR)" opacity="0.75"/>
  <polygon points="32,22 64,30 64,36 32,23.5" fill="url(#beamAmberR)" opacity="0.6"/>
  <polygon points="32,19 0,4 0,9 32,20" fill="url(#beamTealLU)" opacity="0.9"/>
  <polygon points="32,20 0,16 0,22 32,21" fill="url(#beamTealLD)" opacity="0.75"/>
  <polygon points="32,22 0,30 0,36 32,23.5" fill="url(#beamTealLD)" opacity="0.6"/>

  <path d="M23 52 L18 59 H46 L41 52 Z" fill="url(#baseGrad1)"/>
  <path d="M26 24 L22 52 H42 L38 24 Z" fill="url(#towerGrad1)"/>
  <rect x="22.5" y="33.5" width="19" height="2" rx="0.5" fill="#7aaabf" opacity="0.45"/>
  <rect x="22" y="43" width="20" height="2" rx="0.5" fill="#7aaabf" opacity="0.45"/>

  <rect x="25.5" y="15" width="13" height="10" rx="1.5" fill="#4a6e88"/>
  <rect x="27" y="16.5" width="4" height="7" rx="0.5" fill="#5d829a" opacity="0.85"/>
  <rect x="32.5" y="16.5" width="4" height="7" rx="0.5" fill="#5d829a" opacity="0.85"/>
  <rect x="31.5" y="16" width="1" height="8.5" fill="#3a5870" opacity="0.8"/>

  <circle cx="32" cy="20" r="4.5" fill="#d4963a" opacity="0.28"/>
  <circle cx="32" cy="20" r="2.8" fill="url(#glow1)"/>
  <circle cx="32" cy="20" r="1.3" fill="#ffffff"/>

  <path d="M25 15 L28.5 10 H35.5 L39 15 Z" fill="#5a7a96"/>
  <rect x="28" y="9" width="8" height="1.5" rx="0.75" fill="#6a8fa8"/>
  <line x1="32" y1="9" x2="32" y2="6" stroke="#7aaabf" stroke-width="1.2" stroke-linecap="round"/>
  <circle cx="32" cy="5.5" r="1.1" fill="#e8b45a"/>

  <rect x="16" y="59" width="32" height="3.5" rx="1.75" fill="#3e5e78"/>
  <path d="M10 62 Q18 60 26 62 Q34 64 42 62 Q50 60 56 62" stroke="#1da89a" stroke-width="1.3" fill="none" opacity="0.55" stroke-linecap="round"/>
</svg>
